<svg width="220" height="46" viewBox="0 0 220 46" xmlns="http://www.w3.org/2000/svg">
  <path d="M0 23 Q 27 5, 55 23 T 110 23 T 165 23 T 220 23" fill="none" stroke="#7C9473" stroke-width="3" stroke-linecap="round"/>
  <g fill="#7C9473">
    <ellipse cx="20" cy="14" rx="7" ry="4.5" transform="rotate(-30 20 14)"/>
    <ellipse cx="47" cy="32" rx="7" ry="4.5" transform="rotate(30 47 32)"/>
    <ellipse cx="75" cy="14" rx="7" ry="4.5" transform="rotate(-30 75 14)"/>
    <ellipse cx="102" cy="32" rx="7" ry="4.5" transform="rotate(30 102 32)"/>
    <ellipse cx="130" cy="14" rx="7" ry="4.5" transform="rotate(-30 130 14)"/>
    <ellipse cx="157" cy="32" rx="7" ry="4.5" transform="rotate(30 157 32)"/>
    <ellipse cx="185" cy="14" rx="7" ry="4.5" transform="rotate(-30 185 14)"/>
    <ellipse cx="212" cy="32" rx="7" ry="4.5" transform="rotate(30 212 32)"/>
  </g>
  <g fill="#5C7050">
    <circle cx="20" cy="14" r="2"/>
    <circle cx="47" cy="32" r="2"/>
    <circle cx="75" cy="14" r="2"/>
    <circle cx="102" cy="32" r="2"/>
    <circle cx="130" cy="14" r="2"/>
    <circle cx="157" cy="32" r="2"/>
    <circle cx="185" cy="14" r="2"/>
    <circle cx="212" cy="32" r="2"/>
  </g>
</svg>
